<?xml version="1.0" encoding="UTF-8"?>
<svg width="48" height="48" version="1.1" viewBox="0 0 48 48" xmlns="http://www.w3.org/2000/svg">
 <path d="m26.566 9.5161e-4c-0.204-0.00429-0.40182 0.00589-0.59375 0.03125-0.5012 0.0662-1.0482 0.18284-1.2402 0.26562-0.869 0.37458-1.3546 0.68348-1.8945 1.2031-0.83087 0.79961-1.3802 1.7663-1.6445 2.8945-0.11258 0.48047-0.15531 1.7091-0.07617 2.2051 0.3941 2.4707 2.2532 4.3885 4.5996 4.7461 0.60863 0.0927 0.89356 0.09219 1.5-0.0039v2e-3c2.0324-0.32058 3.6992-1.7725 4.3887-3.8203 0.35687-1.0599 0.35851-2.5845 2e-3 -3.6367-0.52628-1.5535-1.7336-2.8964-3.1094-3.459-0.66116-0.27038-1.3196-0.41487-1.9316-0.42773zm-6.4531 12.186c-0.09622-0.0042-0.18853 0.0087-0.32617 0.03711-0.79644 0.1645-1.1684 0.49054-1.918 1.6836-0.27221 0.43326-0.49414 0.81082-0.49414 0.83789 0 0.0271 0.28314 0.2989 0.62891 0.60352 0.68279 0.60153 1.6026 1.3395 5.8457 4.6953 0.72097 0.5702 1.5377 1.2185 1.8164 1.4414 0.27869 0.22289 0.54483 0.43378 0.58984 0.46875 0.045 0.035 0.18547 0.15011 0.31445 0.25586l0.23633 0.19336 3.0293-0.0293c1.6661-0.016 3.3813-0.04174 3.8125-0.05664 0.44364-0.0154 0.89329-0.06027 1.0371-0.10352 0.80772-0.24309 1.4708-1.1576 1.4688-2.0273-2e-3 -0.84201-0.51752-1.6489-1.2832-2.0078-0.3482-0.1632-0.49886-0.16687-4.2812-0.09766l-2.3262 0.04297-0.75-0.59375c-0.41199-0.32704-1.1706-0.92442-1.6855-1.3262-0.79863-0.62303-1.4749-1.1531-3.4961-2.7363-0.17214-0.13485-0.48244-0.3844-0.68945-0.55469-0.49492-0.40711-0.74256-0.5453-1.1777-0.66016-0.15578-0.0411-0.25534-0.06224-0.35156-0.06641zm-4.5312 5.4863c-0.0493 0.0189-0.41094 0.46334-0.80273 0.98828-0.83589 1.1199-0.90994 1.2847-0.90625 2.0254 2e-3 0.45129 0.01972 0.54865 0.16406 0.85742 0.21726 0.46468 0.33823 0.59457 1.1055 1.2109 0.35998 0.2892 0.70287 0.56759 0.76172 0.61719 0.0991 0.0835 0.79982 0.65278 2.3262 1.8867 0.33842 0.27359 0.89279 0.72179 1.2324 0.99805 0.33963 0.27625 0.75262 0.61172 0.91797 0.74414s0.32621 0.2888 0.35742 0.34766c0.0421 0.0794 1.334 6.3643 1.4902 7.25 0.10005 0.56733 0.25138 1.1853 0.33789 1.3809 0.23663 0.53494 0.82749 1.0238 1.4062 1.1641 0.35897 0.087 0.45442 0.08832 0.79688 0.01563 0.85363-0.18112 1.4817-0.84796 1.6445-1.7461 0.0608-0.33545 0.04843-0.46308-0.1582-1.5371-0.039-0.20271-0.27503-1.3036-0.37891-1.7656-0.0265-0.11771-0.08355-0.39452-0.12695-0.61523-0.0434-0.2207-0.13876-0.67721-0.21094-1.0156-0.0722-0.33841-0.21835-1.0251-0.32422-1.5254-0.10586-0.50027-0.22355-1.0539-0.26367-1.2305-0.0652-0.28711-0.1499-0.67916-0.30274-1.418-0.0274-0.13242-0.08317-0.39856-0.125-0.58984-0.22089-1.0092-0.18669-0.93893-0.65625-1.3164-0.14269-0.11471-0.27045-0.22091-0.28516-0.23633-0.0147-0.0154-0.19635-0.15791-0.40234-0.31836-0.206-0.16044-0.38567-0.30449-0.40039-0.32031-0.0147-0.0158-0.32597-0.27058-0.69141-0.56445-0.36544-0.29387-1.0068-0.81003-1.4258-1.1484-0.41902-0.33842-1.3122-1.059-1.9844-1.6016-1.7355-1.4009-1.9472-1.5817-2.7031-2.2891-0.21104-0.19749-0.33021-0.27199-0.39258-0.24805zm-5.5762 7.6055c-0.65265-6e-3 -1.4558 0.02504-1.7969 0.08594-0.90992 0.16246-1.6469 0.40219-2.4707 0.80469-2.1739 1.0621-3.9309 3.0706-4.7676 5.4531-0.12696 0.36154-0.1578 0.46964-0.29297 1.0098-0.15443 0.6171-0.22061 1.1677-0.24609 2.0469-0.02766 0.95428 0.034048 1.6143 0.24609 2.6133 0.19569 0.92197 0.84149 2.4094 1.4102 3.2461 1.0969 1.6138 2.7085 2.9005 4.4453 3.5527 1.2909 0.48477 2.7105 0.66296 4.0742 0.51172 1.3981-0.15504 2.7711-0.66602 3.9707-1.4766 1.5791-1.067 2.7959-2.5752 3.5371-4.3887 0.29149-0.71318 0.38742-1.0615 0.5918-2.1289 0.15651-0.81742 0.15984-2.4756 0.0059-3.2949-0.16452-0.87552-0.18328-0.94846-0.42188-1.6504-0.66106-1.9448-1.8939-3.593-3.5723-4.7793-0.90846-0.64213-2.2498-1.2328-3.2559-1.4336-0.17656-0.0352-0.43588-0.08934-0.57617-0.11914-0.15185-0.0323-0.48927-0.04883-0.88086-0.05273zm28.416 0c-0.52178 4e-4 -1.0551 0.0212-1.3066 0.0625-0.80598 0.13202-1.1928 0.23798-1.9902 0.54492-1.11 0.42727-2.3269 1.2461-3.1836 2.1426-0.52656 0.551-0.66174 0.71818-1.0898 1.3535-0.84601 1.2556-1.2782 2.382-1.5996 4.166-0.0826 0.45862-0.08281 2.333 0 2.8438 0.18498 1.1392 0.4509 1.9901 0.91797 2.9414 0.17339 0.35312 0.34567 0.69114 0.38281 0.75 0.97685 1.548 2.0244 2.5729 3.502 3.4277 1.5671 0.90669 3.4282 1.2898 5.3086 1.0918 0.56496-0.0595 1.5511-0.29694 2.0996-0.50391 1.1172-0.42159 2.5079-1.3263 3.2812-2.1367 0.83072-0.87061 1.3341-1.5844 1.8164-2.5742 0.47644-0.9779 0.7307-1.7772 0.94531-2.9707 0.10402-0.57852 0.08841-2.4532-0.02539-3.0625-0.39807-2.1315-1.203-3.7669-2.5586-5.1992-1.0035-1.0603-2.2135-1.8844-3.416-2.3262-0.10299-0.0378-0.23607-0.08858-0.29492-0.11133-0.2677-0.10365-0.78307-0.22977-1.5469-0.37891-0.20959-0.0409-0.72041-0.06085-1.2422-0.06055zm-0.13281 3.293c0.22892-3e-3 0.45771 0.0085 0.6875 0.0332 0.5987 0.0654 0.62573 0.07138 1.3242 0.30273 0.44696 0.148 1.0049 0.42372 1.2949 0.64062 0.0937 0.07 0.18277 0.12891 0.19922 0.12891 0.0447 0 0.27976 0.19896 0.69141 0.58789 0.84309 0.79656 1.4441 1.8491 1.7715 3.1035 0.18298 0.70111 0.2321 1.7963 0.11328 2.5137-0.26013 1.5704-0.73266 2.549-1.7383 3.6016-0.91075 0.95331-2.029 1.5535-3.3125 1.7773-0.41158 0.0718-1.3405 0.09597-1.668 0.04297-1.378-0.22289-2.43-0.73705-3.3613-1.6426-1.2701-1.2349-1.9883-2.9243-1.9883-4.6777 0-0.77271 0.18804-1.7581 0.48242-2.5215 0.22062-0.57208 0.75898-1.4233 1.2188-1.9277 1.1279-1.2376 2.6827-1.941 4.2852-1.9629zm-28.789 0.0039c0.24067-5e-3 0.48345 0.0067 0.72656 0.0332 0.54281 0.0598 0.66341 0.08475 1.209 0.25391 1.4795 0.45878 2.8926 1.7061 3.5996 3.1777 0.89326 1.8595 0.87699 4.0426-0.04297 5.9023-0.56137 1.1348-1.5364 2.1364-2.6465 2.7168-1.1761 0.61489-2.573 0.82645-3.7988 0.57617-0.98776-0.20169-1.9088-0.63236-2.6211-1.2246-0.83757-0.69639-1.4919-1.595-1.9297-2.6562-0.0429-0.10399-0.1377-0.42053-0.25781-0.85742-0.31875-1.1594-0.18353-2.8585 0.32422-4.084 0.95186-2.2974 3.111-3.7907 5.4375-3.8379z"/>
</svg>
