<?xml version="1.0" encoding="UTF-8"?>
<svg width="48" height="48" version="1.1" viewBox="0 0 48 48" xmlns="http://www.w3.org/2000/svg">
 <path d="m8.12 28.8 5.51 17.7c0.1 0.37 0.4 0.61 0.77 0.61h3.55l-2.59-15.3c-0.08-0.51 0.42-1.19 0.88-1.3 0.44-0.09 1.2 0.41 1.29 0.93l2.65 15.6h2.77v-15.4c0-0.55 0.68-1.17 1.14-1.17 0.47 0 1.09 0.62 1.09 1.17v15.4h2.89l2.73-15.6c0.09-0.52 0.9-0.99 1.33-0.88 0.46 0.11 1.04 0.75 0.95 1.26l-2.66 15.3h3.51c0.34 0 0.65-0.25 0.78-0.62l5.5-17.7z" />
 <path d="m30.9 6.11a7.64 5.8 0 0 1-7.27 3.98 7.64 5.8 0 0 1-7.25-3.98c-1.39 0.523-2.71 1.19-3.95 2-2.58 1.66-4.95 4.96-5.34 9.59-2.62 0.57-3.44 1.43-3.64 2.91-0.572 4.36 3.35 5.57 3.35 5.57s32 0.15 34.3-0.08c2.36-0.22 3.51-1.25 3.57-4.44 0.04-1.9-1.28-3.91-4.64-3.76-0.2-3.87-1.88-7.92-4.69-9.65-1.47-0.892-2.94-1.61-4.43-2.14z" />
 <ellipse cx="23.8" cy="4.33" rx="5.6" ry="3.72" />
</svg>
