<?xml version="1.0" encoding="UTF-8"?>
<svg width="100" height="100" version="1.1" viewBox="0 0 100 100" xmlns="http://www.w3.org/2000/svg">
 <path d="m49 1.37c-3.7 0-5.58 2.6-5.21 7.86 0 1.13 0.43 1.52 0.8 1.52 0.36 2.24 1.38 2.96 1.38 4.45 0 1.14-0.74 1.59-3.71 2.35-1.88 0.75-4.06 2.91-5.15 5.15-1.52 3.39-3.04 6.8-3.04 8.68s4.13 5.26 6.74 7.51c0 0-0.79 5.25 1.45 15 0.37 7.83 1.89 16.1 1.89 22.5h9.35c0-6.37 1.52-14.6 1.89-22.5 2.24-9.77 1.53-15 1.53-15 2.96-2.25 7.1-5.63 7.1-7.51s-1.52-5.2-3.05-8.2c-1.09-2.63-3.26-4.9-5.15-5.28-2.61-1.12-3.69-1.11-3.69-2.24 0-1.5 1.01-1.93 1.37-4.55 0.37-0.38 0.8-0.78 0.8-1.53 0.36-5.63-1.52-8.21-5.3-8.21zm-11.2 78.8c-1.89 0-3.7 1.52-3.7 3.77v3.7h30v-3.7c0-2.25-1.45-3.77-3.7-3.77zm-4.43 11.2c-3.78 0-6.81 3.05-6.81 6.82v0.69h45v-0.69c0-3.77-3.05-6.82-7.19-6.82z"/>
</svg>
